<svg width="128" height="128" viewBox="0 0 128 128" fill="none" xmlns="http://www.w3.org/2000/svg">
<g clip-path="url(#clip0_3_10684)">
<path d="M122.364 0H97.4303C96.3925 0 95.5515 0.841 95.5515 1.87875C95.5515 2.9165 96.3925 3.7575 97.4303 3.7575H122.364C123.4 3.7575 124.243 4.60025 124.243 5.63625V43.4495C124.243 44.4855 123.4 45.3283 122.364 45.3283H70.6718V44.425C70.6718 40.76 67.6902 37.7788 64.0255 37.7788C60.3607 37.7788 57.3792 40.7603 57.3792 44.425V45.3283H38.242C37.9953 45.3283 37.751 45.3768 37.523 45.4713C37.2951 45.5657 37.088 45.7041 36.9135 45.8785C36.7391 46.053 36.6007 46.2601 36.5063 46.488C36.4118 46.716 36.3633 46.9603 36.3633 47.207C36.3633 47.4537 36.4118 47.698 36.5063 47.926C36.6007 48.1539 36.7391 48.361 36.9135 48.5355C37.088 48.7099 37.2951 48.8483 37.523 48.9427C37.751 49.0372 37.9953 49.0858 38.242 49.0858H57.3792V82.1937L52.917 77.1927C51.5531 75.6656 49.8822 74.4435 48.0135 73.6064C46.1449 72.7694 44.1206 72.3362 42.073 72.3353C40.5312 72.3353 39.1405 73.1265 38.3527 74.452C37.565 75.7775 37.535 77.3775 38.272 78.7318L45.754 92.4765C47.6056 95.8798 49.9781 98.9726 52.7855 101.643L60.759 109.229V113.254C58.8088 113.659 57.339 115.391 57.339 117.459V123.705C57.339 126.074 59.2658 128 61.6343 128H91.256C93.6245 128 95.5515 126.074 95.5515 123.705V117.459C95.5515 115.435 94.1428 113.738 92.2555 113.286V109.11C93.9678 106.95 99.277 99.0228 99.277 83.795V72.32C99.277 68.6553 96.2955 65.674 92.6308 65.674C91.4493 65.6725 90.2891 65.9879 89.271 66.5872C88.2918 64.1355 85.8927 62.3985 83.0955 62.3985C81.9141 62.397 80.754 62.7124 79.736 63.3117C78.7568 60.86 76.3577 59.123 73.5605 59.123C72.5257 59.123 71.5455 59.3605 70.6715 59.7842V49.0863H122.364C125.471 49.0863 128 46.5577 128 43.4502V5.636C128 2.52825 125.472 0 122.364 0ZM73.5608 62.8795C75.1538 62.8795 76.4498 64.1755 76.4498 65.7685V69.0443C76.4498 70.082 77.2907 70.923 78.3285 70.923C79.3662 70.923 80.2073 70.082 80.2073 69.0443C80.2073 67.4512 81.5033 66.1553 83.0963 66.1553C84.689 66.1553 85.985 67.4512 85.985 69.0443V72.3197C85.985 73.3575 86.826 74.1985 87.8637 74.1985C88.9015 74.1985 89.7425 73.3575 89.7425 72.3197C89.7425 70.7267 91.0385 69.431 92.6315 69.431C94.2245 69.431 95.5205 70.7267 95.5205 72.3197V83.7947C95.5205 99.9352 89.0728 107.068 89.0143 107.131C88.6832 107.48 88.4987 107.943 88.4987 108.424V113.163H83.96C82.9222 113.163 82.0813 114.005 82.0813 115.042C82.0813 116.08 82.9222 116.921 83.96 116.921H91.2562C91.553 116.921 91.7945 117.162 91.7945 117.459V123.705C91.7943 123.848 91.7375 123.984 91.6366 124.085C91.5357 124.186 91.3989 124.243 91.2562 124.243H61.6343C61.4916 124.243 61.3548 124.186 61.254 124.085C61.1531 123.984 61.0964 123.848 61.0962 123.705V117.459C61.0962 117.162 61.3375 116.921 61.6343 116.921H76.4453C77.483 116.921 78.324 116.08 78.324 115.042C78.324 114.005 77.483 113.163 76.4453 113.163H64.5165V108.424C64.5165 108.169 64.4647 107.917 64.3644 107.683C64.264 107.449 64.1172 107.238 63.9328 107.063L55.3755 98.9205C52.8515 96.52 50.7186 93.7395 49.054 90.6797L41.572 76.935C41.3952 76.461 41.5718 76.1637 42.0728 76.0922C45.1403 76.0922 48.0707 77.4047 50.113 79.6937L57.7842 88.2913C58.8727 89.5718 61.1885 88.755 61.136 87.0405V44.425C61.136 42.832 62.432 41.536 64.025 41.536C65.6178 41.536 66.9137 42.832 66.9137 44.425V65.7685C66.9137 66.8063 67.7548 67.6472 68.7925 67.6472C69.8303 67.6472 70.6712 66.8063 70.6712 65.7685C70.6718 64.1755 71.9678 62.8795 73.5608 62.8795ZM30.7272 45.328H5.636C4.6 45.328 3.75725 44.4852 3.75725 43.4492V5.636C3.75725 4.6 4.6 3.75725 5.636 3.75725H89.9155C90.1622 3.75725 90.4065 3.70866 90.6344 3.61425C90.8624 3.51984 91.0694 3.38146 91.2439 3.20701C91.4183 3.03257 91.5567 2.82547 91.6511 2.59754C91.7455 2.36962 91.7941 2.12533 91.7941 1.87863C91.7941 1.63192 91.7455 1.38763 91.6511 1.15971C91.5567 0.931781 91.4183 0.724683 91.2439 0.550237C91.0694 0.37579 90.8624 0.237412 90.6344 0.143002C90.4065 0.0485921 90.1622 -5.19891e-09 89.9155 0L5.636 0C2.52825 0 0 2.52825 0 5.636V43.4492C0 46.5567 2.52825 49.0853 5.636 49.0853H30.7272C30.9758 49.0881 31.2224 49.0416 31.4528 48.9485C31.6833 48.8554 31.893 48.7175 32.0697 48.5427C32.2465 48.368 32.3868 48.1599 32.4826 47.9306C32.5784 47.7012 32.6277 47.4552 32.6277 47.2066C32.6277 46.9581 32.5784 46.712 32.4826 46.4827C32.3868 46.2533 32.2465 46.0452 32.0697 45.8705C31.893 45.6958 31.6833 45.5579 31.4528 45.4647C31.2224 45.3716 30.9758 45.3251 30.7272 45.328Z" fill="#536666"/>
<path d="M76.3634 23.1315C77.4671 22.0558 77.8571 20.4768 77.3806 19.0108C76.9044 17.5448 75.6606 16.4963 74.1351 16.2745L69.7609 15.639C69.7186 15.6329 69.6785 15.6166 69.6439 15.5915C69.6093 15.5664 69.5813 15.5333 69.5624 15.495L67.6059 11.531C66.9239 10.1488 65.5426 9.29004 64.0009 9.29004C62.4594 9.29004 61.0779 10.1485 60.3956 11.531L58.4391 15.4953C58.4006 15.5728 58.3266 15.6268 58.2414 15.639L53.8661 16.2745C52.3406 16.4963 51.0971 17.5448 50.6209 19.0108C50.1446 20.4768 50.5344 22.0558 51.6381 23.1315L54.8039 26.2175C54.8659 26.278 54.8941 26.3648 54.8794 26.4503L54.1321 30.8073C53.8716 32.3263 54.4844 33.833 55.7314 34.739C56.9784 35.6453 58.6009 35.7625 59.9654 35.0453L63.8784 32.988C63.9549 32.9475 64.0464 32.9475 64.1229 32.988L68.0361 35.0453C68.6139 35.3505 69.2572 35.5104 69.9106 35.5113C70.7406 35.5113 71.5654 35.251 72.2701 34.739C73.5169 33.833 74.1296 32.3263 73.8689 30.8073L73.1219 26.4503C73.1146 26.4083 73.1177 26.3651 73.1308 26.3246C73.144 26.284 73.1668 26.2473 73.1974 26.2175L76.3634 23.1315ZM70.5749 23.5273C70.108 23.9822 69.7589 24.5438 69.5575 25.1637C69.3561 25.7836 69.3085 26.4432 69.4189 27.0855L70.1661 31.443C70.1734 31.487 70.1936 31.604 70.0614 31.6998C69.9296 31.7958 69.8236 31.7403 69.7844 31.7198L65.8716 29.6628C65.2947 29.3594 64.6526 29.2009 64.0008 29.2008C63.3489 29.2008 62.7068 29.3592 62.1299 29.6625L58.2171 31.7198C58.1776 31.7403 58.0724 31.7963 57.9399 31.6998C57.8076 31.6038 57.8276 31.4868 57.8354 31.4428L58.5826 27.0855C58.6929 26.4431 58.6453 25.7835 58.4438 25.1637C58.2424 24.5438 57.8932 23.9822 57.4264 23.5273L54.2609 20.4415C54.2289 20.4103 54.1439 20.3273 54.1941 20.172C54.2446 20.0165 54.3624 19.9993 54.4064 19.993L58.7816 19.3575C59.4266 19.2638 60.0391 19.0146 60.5663 18.6314C61.0935 18.2483 61.5197 17.7427 61.8081 17.1583L63.7646 13.1943C63.7844 13.154 63.8369 13.0478 64.0004 13.0478C64.1639 13.0478 64.2161 13.1543 64.2361 13.1943L66.1926 17.158C66.481 17.7427 66.9073 18.2484 67.4347 18.6316C67.9621 19.0149 68.5747 19.2641 69.2199 19.3578L73.5944 19.9933C73.6386 19.9998 73.7564 20.0168 73.8066 20.1723C73.8571 20.3275 73.7721 20.4105 73.7401 20.4418L70.5749 23.5273ZM36.4104 30.8075L35.6631 26.4505C35.6558 26.4085 35.6589 26.3653 35.6721 26.3248C35.6853 26.2842 35.7082 26.2475 35.7389 26.2178L38.9044 23.1318C40.0081 22.056 40.3979 20.477 39.9216 19.011C39.4454 17.545 38.2019 16.4965 36.6761 16.2748L32.3016 15.6393C32.2594 15.6331 32.2193 15.6168 32.1847 15.5917C32.1502 15.5667 32.1223 15.5336 32.1034 15.4953L30.1469 11.5313C29.4646 10.149 28.0834 9.29029 26.5419 9.29029C25.0004 9.29029 23.6189 10.1488 22.9366 11.5313L20.9804 15.4953C20.9614 15.5335 20.9335 15.5666 20.8991 15.5916C20.8646 15.6167 20.8245 15.6331 20.7824 15.6393L16.4074 16.2748C14.8819 16.4965 13.6384 17.545 13.1621 19.011C12.6859 20.477 13.0756 22.056 14.1794 23.1318L17.3451 26.2178C17.4071 26.2783 17.4354 26.365 17.4206 26.4505L16.6734 30.8075C16.4129 32.3268 17.0256 33.8335 18.2726 34.7393C19.5199 35.6458 21.1421 35.7625 22.5066 35.0455L26.4196 32.9883C26.4961 32.948 26.5876 32.948 26.6644 32.9883L30.5776 35.0455C31.1554 35.3507 31.7987 35.5107 32.4521 35.5115C33.2821 35.5115 34.1069 35.2513 34.8116 34.7393C36.0581 33.8333 36.6709 32.3265 36.4104 30.8075ZM33.1164 23.527C32.6494 23.9819 32.3002 24.5435 32.0987 25.1635C31.8972 25.7834 31.8496 26.4431 31.9599 27.0855L32.7071 31.4428C32.7146 31.4868 32.7349 31.6038 32.6026 31.6998C32.4706 31.7963 32.3651 31.7403 32.3256 31.7198L28.4126 29.6625C27.8357 29.3592 27.1937 29.2007 26.5419 29.2007C25.8901 29.2007 25.248 29.3592 24.6711 29.6625L20.7584 31.7198C20.7189 31.7403 20.6136 31.796 20.4814 31.6998C20.3491 31.604 20.3691 31.4868 20.3769 31.4428L21.1241 27.0855C21.2344 26.4431 21.1868 25.7835 20.9853 25.1637C20.7839 24.5438 20.4347 23.9822 19.9679 23.5273L16.8024 20.4413C16.7704 20.41 16.6854 20.327 16.7356 20.1718C16.7861 20.0163 16.9039 19.999 16.9479 19.9928L21.3231 19.3573C21.9681 19.2635 22.5806 19.0143 23.1079 18.6312C23.6352 18.248 24.0614 17.7425 24.3499 17.158L26.3064 13.194C26.3261 13.1538 26.3786 13.0475 26.5421 13.0475C26.7056 13.0475 26.7581 13.154 26.7779 13.194L28.7344 17.1578C29.0228 17.7424 29.449 18.2481 29.9763 18.6313C30.5037 19.0145 31.1163 19.2638 31.7614 19.3575L36.1361 19.993C36.1804 19.9995 36.2979 20.0165 36.3484 20.172C36.3989 20.3273 36.3139 20.4103 36.2819 20.4415L33.1164 23.527ZM113.822 23.1315C114.926 22.0558 115.316 20.4768 114.84 19.0108C114.363 17.5448 113.12 16.4963 111.594 16.2745L107.22 15.639C107.178 15.6329 107.137 15.6166 107.103 15.5915C107.068 15.5665 107.04 15.5333 107.021 15.495L105.065 11.531C104.383 10.1488 103.001 9.29004 101.46 9.29004C99.9184 9.29004 98.5369 10.1485 97.8546 11.531L95.8984 15.4948C95.8794 15.533 95.8515 15.5661 95.8169 15.5912C95.7824 15.6164 95.7423 15.6328 95.7001 15.639L91.3251 16.2745C89.7994 16.4963 88.5561 17.5448 88.0799 19.011C87.6036 20.477 87.9936 22.056 89.0971 23.1315L92.2629 26.2175C92.3246 26.278 92.3531 26.3648 92.3381 26.4503L91.5914 30.8073C91.3306 32.3265 91.9434 33.8333 93.1904 34.7393C94.4369 35.6455 96.0594 35.7628 97.4241 35.0455L101.337 32.9883C101.375 32.9685 101.417 32.9581 101.459 32.9581C101.502 32.9581 101.544 32.9685 101.582 32.9883L105.495 35.0455C106.073 35.3507 106.716 35.5107 107.369 35.5115C108.199 35.5115 109.024 35.2513 109.729 34.7393C110.976 33.8333 111.588 32.3265 111.328 30.8075L110.581 26.4505C110.573 26.4085 110.576 26.3654 110.59 26.3248C110.603 26.2843 110.626 26.2475 110.656 26.2178L113.822 23.1315ZM108.034 23.5273C107.567 23.9822 107.218 24.5438 107.016 25.1637C106.815 25.7836 106.768 26.4432 106.878 27.0855L107.625 31.443C107.632 31.487 107.653 31.604 107.52 31.6998C107.389 31.7958 107.283 31.7403 107.243 31.7198L103.331 29.6628C102.754 29.3595 102.112 29.201 101.46 29.2009C100.808 29.2009 100.166 29.3593 99.5889 29.6625L95.6759 31.7198C95.6369 31.7403 95.5314 31.796 95.3991 31.6998C95.2671 31.604 95.2871 31.487 95.2946 31.4428L96.0414 27.0863C96.1518 26.4438 96.1042 25.7841 95.9029 25.1641C95.7016 24.5441 95.3524 23.9823 94.8856 23.5273L91.7201 20.441C91.6884 20.41 91.6031 20.327 91.6536 20.1718C91.7044 20.0163 91.8219 19.999 91.8659 19.9928L96.2411 19.3573C96.8861 19.2634 97.4985 19.0141 98.0258 18.631C98.553 18.2479 98.9793 17.7424 99.2679 17.158L101.224 13.194C101.244 13.1538 101.297 13.0475 101.46 13.0475C101.623 13.0475 101.676 13.154 101.696 13.194L103.652 17.1578C103.941 17.7424 104.367 18.2482 104.894 18.6314C105.422 19.0146 106.034 19.2638 106.679 19.3575L111.054 19.993C111.098 19.9995 111.216 20.0165 111.266 20.172C111.317 20.3273 111.232 20.4103 111.2 20.4415L108.034 23.5273Z" fill="#00AAA0"/>
</g>
<defs>
<clipPath id="clip0_3_10684">
<rect width="128" height="128" fill="white"/>
</clipPath>
</defs>
</svg>
