<svg width="167" height="40" viewBox="0 0 167 40" fill="none" xmlns="http://www.w3.org/2000/svg">
<g clip-path="url(#clip0_3_5384)">
<path d="M159.138 18.7608H155.59L157.321 14.6424L159.138 18.7608ZM161.301 24.1059H165.109V23.4925L158.186 8.33337H156.455L149.532 23.4925V24.1059H153.34L154.205 22.1782H160.263L161.301 24.1059ZM141.658 14.9929L143.908 20.6009H139.581L141.658 14.9929ZM137.244 24.1935H146.331V25.946H149.532V20.7761H147.975L142.523 8.421H140.792L135.514 20.7761H133.956V25.946H137.244V24.1935ZM121.062 24.1059H125.043V18.1474C125.303 18.1474 125.562 18.0598 125.822 18.0598L129.197 24.1059H133.523V23.4925L129.37 16.6578C132.398 14.6424 132.312 11.7508 132.312 8.59625H128.331C128.331 11.4003 128.504 14.2919 125.043 14.4671V8.59625H121.062V14.4671C117.514 14.2919 117.774 11.4003 117.774 8.59625H113.793C113.793 11.7508 113.707 14.73 116.736 16.6578L112.582 23.4925V24.1059H116.909L120.283 18.0598C120.543 18.1474 120.889 18.1474 121.062 18.1474V24.1059ZM110.765 8.59625C107.13 8.59625 104.707 8.59625 101.159 8.59625C101.159 13.7661 101.159 18.936 101.159 24.1935C104.707 24.1935 107.39 24.1935 110.938 24.1935C110.938 23.0544 110.938 21.8277 110.938 20.6885C108.601 20.6885 107.303 20.6885 105.053 20.6885C105.053 19.7246 105.053 18.8484 105.053 17.9721H110.245C110.245 16.833 110.245 15.6063 110.245 14.4671H105.053V12.2765C107.303 12.2765 108.428 12.2765 110.765 12.2765C110.765 10.9621 110.765 9.73538 110.765 8.59625ZM91.2942 14.9929L93.5441 20.6009H89.2174L91.2942 14.9929ZM86.7944 24.1935H95.8806V25.946H99.0824V20.7761H97.4382L91.9865 8.421H90.2558L84.9771 20.7761H83.4195V25.946H86.7078V24.1935H86.7944ZM77.4486 18.7608H73.9006L75.6313 14.6424L77.4486 18.7608ZM79.612 24.1059H83.4195V23.4925L76.4967 8.33337H74.766L67.8432 23.4925V24.1059H71.6507L72.5161 22.1782H78.5735L79.612 24.1059ZM65.9394 8.59625C64.6414 8.59625 63.2568 8.59625 61.9588 8.59625V14.2043H57.1994V8.59625C55.9013 8.59625 54.5168 8.59625 53.2188 8.59625V24.1935C54.5168 24.1935 55.9013 24.1935 57.1994 24.1935V17.9721H61.9588V24.1935C63.2568 24.1935 64.6414 24.1935 65.9394 24.1935V8.59625Z" fill="#00AAA0"/>
<path d="M164.244 35.8473H163.033C163.033 35.3215 163.033 34.4453 163.033 33.9195C163.465 33.9195 163.898 33.9195 164.244 33.9195C165.196 33.9195 165.109 35.8473 164.244 35.8473ZM162.946 39.177V37.4245H164.157C167.359 37.4245 167.359 32.3423 164.157 32.3423C163.206 32.3423 162.167 32.3423 161.215 32.3423C161.215 34.6205 161.215 36.8988 161.215 39.177C161.821 39.177 162.427 39.177 162.946 39.177ZM156.802 33.9195V39.177C157.408 39.177 157.927 39.177 158.533 39.177V33.9195H160.177C160.177 33.3938 160.177 32.868 160.177 32.3423H155.158C155.158 32.868 155.158 33.3938 155.158 33.9195H156.802ZM154.119 32.3423C153.514 32.3423 152.908 32.3423 152.389 32.3423V34.7958H150.312V32.3423C149.706 32.3423 149.1 32.3423 148.581 32.3423V39.177C149.187 39.177 149.793 39.177 150.312 39.177V36.4606H152.389V39.177C152.994 39.177 153.6 39.177 154.119 39.177V32.3423ZM146.85 32.3423C145.293 32.3423 144.168 32.3423 142.61 32.3423C142.61 34.6205 142.61 36.8988 142.61 39.177C144.168 39.177 145.293 39.177 146.937 39.177C146.937 38.6513 146.937 38.1255 146.937 37.5998C145.899 37.5998 145.379 37.5998 144.341 37.5998C144.341 37.1616 144.341 36.8111 144.341 36.373H146.677C146.677 35.8473 146.677 35.3215 146.677 34.7958H144.341V33.8319C145.293 33.8319 145.812 33.8319 146.85 33.8319C146.85 33.3938 146.85 32.868 146.85 32.3423ZM135.428 39.177H140.187V39.9657H141.572V37.6874H140.88V32.3423H139.149V37.5998H137.159V32.3423H135.428V39.177ZM127.813 30.2393C127.467 30.2393 127.12 30.3269 126.861 30.3269C126.861 31.3784 127.467 31.9918 128.505 31.9918C129.543 31.9918 130.149 31.3784 130.236 30.3269C129.89 30.3269 129.543 30.2393 129.284 30.2393C129.197 30.6774 128.938 30.765 128.592 30.765C128.072 30.765 127.813 30.5898 127.813 30.2393ZM125.909 39.177H125.303V32.3423C125.909 32.3423 126.515 32.3423 127.034 32.3423V35.672L130.409 32.2546H131.014V39.0894C130.409 39.0894 129.803 39.0894 129.197 39.0894V35.7596L125.909 39.177ZM121.755 35.8473V39.177C122.361 39.177 122.967 39.177 123.572 39.177V32.3423H122.88L119.505 35.7596V32.4299C118.9 32.4299 118.294 32.4299 117.775 32.4299V39.2647H118.38L121.755 35.8473ZM112.669 39.177V36.5483C112.929 36.5483 113.102 36.5483 113.361 36.5483L114.832 39.177H116.736V38.9142L114.919 35.9349C116.217 35.0586 116.217 33.7443 116.217 32.3423C115.611 32.3423 115.006 32.3423 114.4 32.3423C114.4 33.6566 114.486 34.971 112.756 34.971H112.669V32.3423C112.063 32.3423 111.458 32.3423 110.938 32.3423V39.177C111.458 39.177 112.063 39.177 112.669 39.177ZM102.891 35.7596C102.891 38.1255 104.621 39.2647 106.352 39.2647C107.823 39.2647 109.294 38.476 109.554 36.5483C108.948 36.5483 108.429 36.5483 107.823 36.5483C107.65 37.2493 107.044 37.6874 106.352 37.6874C105.314 37.6874 104.708 36.8111 104.708 35.7596C104.708 34.6205 105.4 33.8319 106.352 33.8319C107.044 33.8319 107.563 34.1824 107.823 34.7958C108.429 34.7958 108.948 34.7958 109.554 34.7958C109.294 32.9556 107.737 32.167 106.352 32.167C104.621 32.2546 102.891 33.4814 102.891 35.7596ZM101.593 32.3423C100.987 32.3423 100.381 32.3423 99.8619 32.3423V34.7958H97.785V32.3423C97.1793 32.3423 96.5735 32.3423 96.0543 32.3423V39.177C96.66 39.177 97.2658 39.177 97.785 39.177V36.4606H99.8619V39.177C100.468 39.177 101.073 39.177 101.593 39.177V32.3423ZM92.4198 35.8473V39.177C93.0256 39.177 93.6313 39.177 94.2371 39.177V32.3423H93.6313L90.2565 35.7596V32.4299C89.6507 32.4299 89.045 32.4299 88.5257 32.4299V39.2647H89.1315L92.4198 35.8473ZM81.1703 39.177H85.9297V39.9657H87.3143V37.6874H86.622V32.3423H84.8913V37.5998H82.901V32.3423H81.1703V39.177ZM77.7089 35.8473V39.177C78.3146 39.177 78.9203 39.177 79.5261 39.177V32.3423H78.9203L75.5455 35.7596V32.4299C74.9397 32.4299 74.334 32.4299 73.8148 32.4299V39.2647H74.4205L77.7089 35.8473ZM69.3149 35.2339L70.2668 37.6874H68.3631L69.3149 35.2339ZM67.3246 39.2647H71.3053V40.0533H72.6898V37.775H71.9975L69.5745 32.3423H68.7957L66.6324 37.6874H65.9401V39.9657H67.4112V39.2647H67.3246ZM65.1613 32.3423C63.6036 32.3423 62.4787 32.3423 60.921 32.3423C60.921 34.6205 60.921 36.8988 60.921 39.177C62.4787 39.177 63.6036 39.177 65.2478 39.177C65.2478 38.6513 65.2478 38.1255 65.2478 37.5998C64.2094 37.5998 63.6902 37.5998 62.6517 37.5998C62.6517 37.1616 62.6517 36.8111 62.6517 36.373H64.9882C64.9882 35.8473 64.9882 35.3215 64.9882 34.7958H62.6517V33.8319C63.6036 33.8319 64.1228 33.8319 65.1613 33.8319C65.1613 33.3938 65.1613 32.868 65.1613 32.3423ZM55.9885 35.3215L53.3059 32.3423H52.7002V39.177C53.3059 39.177 53.9117 39.177 54.4309 39.177V36.1101L55.902 37.5998H56.0751L57.5462 36.1101V39.177C58.1519 39.177 58.7577 39.177 59.2769 39.177V32.3423H58.6711L55.9885 35.3215Z" fill="#00AAA0"/>
<path d="M20.7451 39.987L19.4175 39.1468C16.1814 37.2142 11.5347 34.0214 7.55178 30.0724C-2.23949 20.4939 -1.32674 10.6633 3.81783 5.1178C7.80072 0.916696 14.7708 -1.01581 20.6621 3.10127C26.5535 -0.93179 33.5235 0.916696 37.5894 5.1178C42.817 10.6633 43.7297 20.4939 34.0214 30.0724C29.9555 34.0214 25.3088 37.2142 22.1557 39.1468L20.7451 39.987ZM13.5261 6.21009C11.2857 6.21009 9.12835 7.21836 7.63476 8.81477C4.48164 12.1757 3.48592 18.7294 11.1198 26.2074C14.2729 29.3162 17.8409 31.8368 20.6621 33.6853C23.4833 31.9209 27.1343 29.3162 30.2045 26.2074C37.8383 18.7294 36.8426 12.0916 33.6895 8.81477C31.0342 5.95802 26.1386 4.86574 22.4876 8.47869L20.7451 10.1591L18.9196 8.39466C17.2601 6.88227 15.3516 6.21009 13.5261 6.21009Z" fill="#D53863"/>
<path fill-rule="evenodd" clip-rule="evenodd" d="M28.5447 16.7126H26.4703H23.898H23.5661V12.0914C23.5661 11.8393 23.3172 11.5873 23.0682 11.5873H18.2556C18.0067 11.5873 17.7577 11.8393 17.7577 12.0914V16.7126H17.4258H13.277H12.7791C12.5302 16.7126 12.2812 16.9647 12.2812 17.2168V22.09C12.2812 22.3421 12.5302 22.5942 12.7791 22.5942H13.277H17.4258H17.7577V26.9633C17.7577 27.2154 18.0067 27.4675 18.2556 27.4675H23.0682C23.3172 27.4675 23.5661 27.2154 23.5661 26.9633V22.5942H23.898H26.4703H28.5447C28.7937 22.5942 29.0426 22.3421 29.0426 22.09V17.2168C29.0426 16.9647 28.7937 16.7126 28.5447 16.7126Z" fill="#D53863"/>
</g>
<defs>
<clipPath id="clip0_3_5384">
<rect width="166.667" height="40" fill="white"/>
</clipPath>
</defs>
</svg>
