<svg width="128" height="128" viewBox="0 0 128 128" fill="none" xmlns="http://www.w3.org/2000/svg">
<path d="M119.5 61.797V60.5078C119.5 47.4438 114.854 34.7455 106.418 24.7522C98.0828 14.8797 86.542 8.18325 73.9208 5.896C72.561 5.65 71.261 6.55175 71.015 7.91025C70.769 9.269 71.6705 10.5697 73.0293 10.816C97.059 15.1705 114.5 36.0688 114.5 60.5078V61.2598H109.5V60.5078C109.5 35.419 89.0888 15.0077 64 15.0077C38.9112 15.0077 18.5 35.419 18.5 60.5078V61.2578H13.5V60.5078C13.5 35.7515 31.2052 14.8067 55.5995 10.7062C56.961 10.4772 57.8792 9.188 57.6502 7.82625C57.4212 6.46475 56.1345 5.54525 54.7702 5.77525C41.9897 7.92375 30.2808 14.572 21.8002 24.4955C13.2237 34.532 8.5 47.3215 8.5 60.5078V61.795C3.58225 63.318 0 67.9082 0 73.3197V90.1957C0 96.8467 5.411 102.258 12.062 102.258H19.0802C20.3955 104.429 22.781 105.884 25.4998 105.884C29.6353 105.884 32.9997 102.519 32.9997 98.3838V65.1338C32.9997 60.9983 29.6353 57.6338 25.4998 57.6338C24.8388 57.6338 24.198 57.7205 23.5872 57.8817C24.9455 36.7695 42.5505 20.0077 64 20.0077C85.4495 20.0077 103.054 36.7695 104.412 57.8817C103.788 57.717 103.146 57.6336 102.5 57.6338C98.3645 57.6338 95 60.9983 95 65.1338V71.375C95 72.7555 96.1195 73.875 97.5 73.875C98.8805 73.875 100 72.7555 100 71.375V65.1338C100 63.7552 101.121 62.6338 102.5 62.6338C103.879 62.6338 105 63.7552 105 65.1338V98.3838C105 99.7623 103.879 100.884 102.5 100.884C101.121 100.884 100 99.7623 100 98.3838V92.625C100 91.2445 98.8805 90.125 97.5 90.125C96.1195 90.125 95 91.2445 95 92.625V98.3838C95 102.519 98.3645 105.884 102.5 105.884C103.377 105.884 104.217 105.731 105 105.454V107.083C105 109.79 102.798 111.992 100.091 111.992H77.156C76.086 108.521 72.849 105.992 69.0318 105.992H59.0317C54.3447 105.992 50.5317 109.805 50.5317 114.492C50.5317 119.179 54.3447 122.992 59.0317 122.992H69.0318C72.849 122.992 76.086 120.463 77.156 116.992H100.091C105.555 116.992 110 112.547 110 107.083V102.26H115.938C122.589 102.26 128 96.8487 128 90.1977V73.3217C128 67.9102 124.418 63.32 119.5 61.797ZM18 97.2578H12.062C8.168 97.2578 5 94.0897 5 90.1957V73.3197C5 69.4257 8.168 66.2578 12.062 66.2578H18V97.2578ZM25.5 62.6338C26.8785 62.6338 28 63.7552 28 65.1338V98.3838C28 99.7623 26.8785 100.884 25.5 100.884C24.1215 100.884 23 99.7623 23 98.3838V65.1338C23 63.7552 24.1215 62.6338 25.5 62.6338ZM69.0318 117.992H59.0317C57.1017 117.992 55.5317 116.422 55.5317 114.492C55.5317 112.562 57.1017 110.992 59.0317 110.992H69.0318C70.9618 110.992 72.5318 112.562 72.5318 114.492C72.5318 116.422 70.9618 117.992 69.0318 117.992ZM123 90.1977C123 94.0917 119.832 97.2598 115.938 97.2598H110V66.2598H115.938C119.832 66.2598 123 69.4277 123 73.3217V90.1977Z" fill="#536666"/>
<path d="M64.2172 5.00806L64 5.00781C62.6195 5.00781 61.5 6.12706 61.5 7.50781C61.5 8.88856 62.6195 10.0078 64 10.0078L64.1998 10.0081H64.2087C65.5852 10.0081 66.7035 8.89456 66.7085 7.51681C66.7135 6.13606 65.598 5.01281 64.2172 5.00806ZM99.2673 79.9926C98.8025 79.5276 98.1575 79.2601 97.5 79.2601C96.8425 79.2601 96.1975 79.5273 95.7325 79.9926C95.2675 80.4578 95 81.1026 95 81.7601C95 82.4176 95.2673 83.0626 95.7325 83.5273C96.1975 83.9926 96.8425 84.2601 97.5 84.2601C98.1575 84.2601 98.8025 83.9926 99.2673 83.5273C99.7323 83.0626 100 82.4176 100 81.7601C100 81.1026 99.7325 80.4576 99.2673 79.9926ZM78.5395 49.0168H49.4605C43.1412 49.0168 38 54.1581 38 60.4773V75.1026C38 81.4218 43.141 86.5633 49.4605 86.5633H56.383L62.0293 93.6093C62.2615 93.8991 62.5553 94.1335 62.8895 94.2955C63.2236 94.4575 63.5897 94.543 63.961 94.5458H63.9803C64.3483 94.5458 64.7117 94.4645 65.0447 94.3078C65.3777 94.1511 65.6719 93.9229 65.9065 93.6393L71.7598 86.5633H78.5395C84.8587 86.5633 90 81.4221 90 75.1026V60.4773C90 54.1581 84.859 49.0168 78.5395 49.0168ZM85 75.1026C85 78.6651 82.1017 81.5633 78.5395 81.5633H70.5833C70.2152 81.5633 69.8518 81.6445 69.5188 81.8012C69.1858 81.9579 68.8915 82.1862 68.657 82.4698L64.011 88.0863L59.5342 82.4998C59.3 82.2075 59.003 81.9716 58.6653 81.8095C58.3276 81.6474 57.9578 81.5633 57.5832 81.5633H49.4605C45.8982 81.5633 43 78.6651 43 75.1026V60.4773C43 56.9148 45.8982 54.0168 49.4605 54.0168H78.5395C82.1017 54.0168 85 56.9151 85 60.4773V75.1026Z" fill="#00AAA0"/>
<path d="M54.8002 67.2725C54.3327 66.8073 53.6902 66.54 53.0327 66.54C52.3752 66.54 51.7302 66.8073 51.2652 67.2725C50.7977 67.7375 50.5327 68.3825 50.5327 69.04C50.5327 69.6975 50.7977 70.3425 51.2652 70.8073C51.7302 71.2723 52.3752 71.54 53.0327 71.54C53.6902 71.54 54.3327 71.2725 54.8002 70.8073C55.265 70.3425 55.5327 69.6975 55.5327 69.04C55.5327 68.3825 55.2652 67.7375 54.8002 67.2725ZM65.8002 67.2725C65.3303 66.8054 64.6953 66.5422 64.0327 66.54C63.3727 66.54 62.7302 66.8073 62.2652 67.2725C61.7977 67.7375 61.5327 68.3825 61.5327 69.04C61.5327 69.6975 61.7977 70.3425 62.2652 70.8073C62.7348 71.275 63.37 71.5383 64.0327 71.54C64.6902 71.54 65.3352 71.2725 65.8002 70.8073C66.265 70.3425 66.5327 69.6975 66.5327 69.04C66.5327 68.3825 66.2652 67.7375 65.8002 67.2725ZM76.8002 67.2725C76.3301 66.8058 75.6952 66.5427 75.0327 66.54C74.3727 66.54 73.7302 66.8073 73.2652 67.2725C72.7971 67.7418 72.5338 68.3772 72.5327 69.04C72.5327 69.7 72.7977 70.3425 73.2652 70.8073C73.7348 71.275 74.37 71.5383 75.0327 71.54C75.6902 71.54 76.3327 71.2725 76.8002 70.8073C77.265 70.3425 77.5327 69.6975 77.5327 69.04C77.5327 68.3825 77.2652 67.7375 76.8002 67.2725Z" fill="#00AAA0"/>
</svg>
