<svg width="120" height="29" viewBox="0 0 120 29" fill="none" xmlns="http://www.w3.org/2000/svg">
<g clip-path="url(#clip0_3_5300)">
<path d="M114.579 13.5077H112.025L113.271 10.5425L114.579 13.5077ZM116.137 17.3562H118.878V16.9146L113.894 6H112.648L107.663 16.9146V17.3562H110.405L111.028 15.9682H115.389L116.137 17.3562ZM101.993 10.7948L103.613 14.8326H100.498L101.993 10.7948ZM98.8158 17.4193H105.358V18.6811H107.663V14.9588H106.542L102.616 6.06309H101.37L97.5697 14.9588H96.4482V18.6811H98.8158V17.4193ZM87.1647 17.3562H90.0308V13.0661C90.2177 13.0661 90.4046 13.003 90.5915 13.003L93.0214 17.3562H96.1367V16.9146L93.146 11.9936C95.3267 10.5425 95.2644 8.46051 95.2644 6.18927H92.3984C92.3984 8.20815 92.523 10.2901 90.0308 10.4163V6.18927H87.1647V10.4163C84.6102 10.2901 84.7971 8.20815 84.7971 6.18927H81.9311C81.9311 8.46051 81.8688 10.6056 84.0495 11.9936L81.0588 16.9146V17.3562H84.1741L86.604 13.003C86.7909 13.0661 87.0401 13.0661 87.1647 13.0661V17.3562ZM79.7504 6.18927C77.1336 6.18927 75.389 6.18927 72.8345 6.18927C72.8345 9.91159 72.8345 13.6339 72.8345 17.4193C75.389 17.4193 77.3205 17.4193 79.875 17.4193C79.875 16.5991 79.875 15.7159 79.875 14.8957C78.1928 14.8957 77.2582 14.8957 75.6383 14.8957C75.6383 14.2017 75.6383 13.5708 75.6383 12.9399H79.3766C79.3766 12.1197 79.3766 11.2365 79.3766 10.4163H75.6383V8.83905C77.2582 8.83905 78.0682 8.83905 79.7504 8.83905C79.7504 7.8927 79.7504 7.00944 79.7504 6.18927ZM65.7317 10.7948L67.3517 14.8326H64.2364L65.7317 10.7948ZM62.4918 17.4193H69.0339V18.6811H71.3392V14.9588H70.1554L66.2302 6.06309H64.9841L61.1834 14.9588H60.0619V18.6811H62.4295V17.4193H62.4918ZM55.7629 13.5077H53.2084L54.4545 10.5425L55.7629 13.5077ZM57.3205 17.3562H60.0619V16.9146L55.0775 6H53.8314L48.847 16.9146V17.3562H51.5884L52.2115 15.9682H56.5728L57.3205 17.3562ZM47.4763 6.18927C46.5417 6.18927 45.5448 6.18927 44.6102 6.18927V10.227H41.1834V6.18927C40.2488 6.18927 39.252 6.18927 38.3174 6.18927V17.4193C39.252 17.4193 40.2488 17.4193 41.1834 17.4193V12.9399H44.6102V17.4193C45.5448 17.4193 46.5417 17.4193 47.4763 17.4193V6.18927Z" fill="#00AAA0"/>
<path d="M118.256 25.81H117.384C117.384 25.4314 117.384 24.8005 117.384 24.422C117.695 24.422 118.007 24.422 118.256 24.422C118.941 24.422 118.879 25.81 118.256 25.81ZM117.321 28.2074V26.9456H118.194C120.499 26.9456 120.499 23.2864 118.194 23.2864C117.508 23.2864 116.761 23.2864 116.075 23.2864C116.075 24.9267 116.075 26.5671 116.075 28.2074C116.511 28.2074 116.947 28.2074 117.321 28.2074ZM112.898 24.422V28.2074C113.334 28.2074 113.708 28.2074 114.144 28.2074V24.422H115.328C115.328 24.0435 115.328 23.6649 115.328 23.2864H111.714C111.714 23.6649 111.714 24.0435 111.714 24.422H112.898ZM110.966 23.2864C110.53 23.2864 110.094 23.2864 109.72 23.2864V25.0529H108.225V23.2864C107.789 23.2864 107.352 23.2864 106.979 23.2864V28.2074C107.415 28.2074 107.851 28.2074 108.225 28.2074V26.2516H109.72V28.2074C110.156 28.2074 110.592 28.2074 110.966 28.2074V23.2864ZM105.732 23.2864C104.611 23.2864 103.801 23.2864 102.68 23.2864C102.68 24.9267 102.68 26.5671 102.68 28.2074C103.801 28.2074 104.611 28.2074 105.795 28.2074C105.795 27.8289 105.795 27.4503 105.795 27.0718C105.047 27.0718 104.673 27.0718 103.926 27.0718C103.926 26.7563 103.926 26.504 103.926 26.1885H105.608C105.608 25.81 105.608 25.4314 105.608 25.0529H103.926V24.3589C104.611 24.3589 104.985 24.3589 105.732 24.3589C105.732 24.0435 105.732 23.6649 105.732 23.2864ZM97.5082 28.2074H100.935V28.7752H101.932V27.1349H101.433V23.2864H100.187V27.0718H98.7543V23.2864H97.5082V28.2074ZM92.0253 21.7722C91.7761 21.7722 91.5269 21.8353 91.34 21.8353C91.34 22.5924 91.7761 23.034 92.5238 23.034C93.2714 23.034 93.7076 22.5924 93.7699 21.8353C93.5207 21.8353 93.2714 21.7722 93.0845 21.7722C93.0222 22.0877 92.8353 22.1508 92.5861 22.1508C92.2123 22.1508 92.0253 22.0246 92.0253 21.7722ZM90.6546 28.2074H90.2185V23.2864C90.6546 23.2864 91.0908 23.2864 91.4646 23.2864V25.6838L93.8945 23.2233H94.3306V28.1443C93.8945 28.1443 93.4584 28.1443 93.0222 28.1443V25.7469L90.6546 28.2074ZM87.664 25.81V28.2074C88.1001 28.2074 88.5362 28.2074 88.9724 28.2074V23.2864H88.4739L86.044 25.7469V23.3495C85.6079 23.3495 85.1718 23.3495 84.7979 23.3495V28.2705H85.2341L87.664 25.81ZM81.1219 28.2074V26.3147C81.3088 26.3147 81.4334 26.3147 81.6203 26.3147L82.6795 28.2074H84.0503V28.0181L82.7418 25.8731C83.6764 25.2422 83.6764 24.2958 83.6764 23.2864C83.2403 23.2864 82.8041 23.2864 82.368 23.2864C82.368 24.2327 82.4303 25.1791 81.1842 25.1791H81.1219V23.2864C80.6858 23.2864 80.2496 23.2864 79.8758 23.2864V28.2074C80.2496 28.2074 80.6858 28.2074 81.1219 28.2074ZM74.0814 25.7469C74.0814 27.4503 75.3275 28.2705 76.5736 28.2705C77.6328 28.2705 78.692 27.7027 78.8789 26.3147C78.4428 26.3147 78.0689 26.3147 77.6328 26.3147C77.5082 26.8194 77.0721 27.1349 76.5736 27.1349C75.826 27.1349 75.3898 26.504 75.3898 25.7469C75.3898 24.9267 75.8883 24.3589 76.5736 24.3589C77.0721 24.3589 77.4459 24.6113 77.6328 25.0529C78.0689 25.0529 78.4428 25.0529 78.8789 25.0529C78.692 23.728 77.5705 23.1602 76.5736 23.1602C75.3275 23.2233 74.0814 24.1066 74.0814 25.7469ZM73.1468 23.2864C72.7107 23.2864 72.2746 23.2864 71.9007 23.2864V25.0529H70.4054V23.2864C69.9693 23.2864 69.5331 23.2864 69.1593 23.2864V28.2074C69.5954 28.2074 70.0316 28.2074 70.4054 28.2074V26.2516H71.9007V28.2074C72.3369 28.2074 72.773 28.2074 73.1468 28.2074V23.2864ZM66.5425 25.81V28.2074C66.9786 28.2074 67.4147 28.2074 67.8509 28.2074V23.2864H67.4147L64.9848 25.7469V23.3495C64.5487 23.3495 64.1126 23.3495 63.7387 23.3495V28.2705H64.1749L66.5425 25.81ZM58.4428 28.2074H61.8696V28.7752H62.8665V27.1349H62.368V23.2864H61.1219V27.0718H59.6889V23.2864H58.4428V28.2074ZM55.9506 25.81V28.2074C56.3867 28.2074 56.8228 28.2074 57.259 28.2074V23.2864H56.8228L54.3929 25.7469V23.3495C53.9568 23.3495 53.5207 23.3495 53.1468 23.3495V28.2705H53.583L55.9506 25.81ZM49.907 25.3684L50.5923 27.1349H49.2216L49.907 25.3684ZM48.4739 28.2705H51.34V28.8383H52.3369V27.198H51.8384L50.0939 23.2864H49.5331L47.9755 27.1349H47.477V28.7752H48.5362V28.2705H48.4739ZM46.9163 23.2864C45.7948 23.2864 44.9848 23.2864 43.8633 23.2864C43.8633 24.9267 43.8633 26.5671 43.8633 28.2074C44.9848 28.2074 45.7948 28.2074 46.9786 28.2074C46.9786 27.8289 46.9786 27.4503 46.9786 27.0718C46.2309 27.0718 45.8571 27.0718 45.1094 27.0718C45.1094 26.7563 45.1094 26.504 45.1094 26.1885H46.7917C46.7917 25.81 46.7917 25.4314 46.7917 25.0529H45.1094V24.3589C45.7948 24.3589 46.1686 24.3589 46.9163 24.3589C46.9163 24.0435 46.9163 23.6649 46.9163 23.2864ZM40.3119 25.4314L38.3805 23.2864H37.9443V28.2074C38.3805 28.2074 38.8166 28.2074 39.1904 28.2074V25.9993L40.2496 27.0718H40.3742L41.4334 25.9993V28.2074C41.8696 28.2074 42.3057 28.2074 42.6795 28.2074V23.2864H42.2434L40.3119 25.4314Z" fill="#00AAA0"/>
<path d="M14.937 28.7906L13.9811 28.1856C11.6511 26.7942 8.30547 24.4954 5.43779 21.6521C-1.61192 14.7555 -0.954746 7.6775 2.74934 3.68477C5.61702 0.659972 10.6355 -0.731434 14.8772 2.23287C19.119 -0.670938 24.1375 0.659972 27.0649 3.68477C30.8287 7.6775 31.4859 14.7555 24.4959 21.6521C21.5685 24.4954 18.2229 26.7942 15.9526 28.1856L14.937 28.7906ZM9.73931 4.47122C8.12624 4.47122 6.57292 5.19717 5.49754 6.34659C3.22729 8.76643 2.51037 13.4851 8.00676 18.8692C10.277 21.1076 12.846 22.9225 14.8772 24.2534C16.9085 22.983 19.5372 21.1076 21.7477 18.8692C27.2441 13.4851 26.5272 8.70593 24.2569 6.34659C22.3452 4.28973 18.8203 3.50328 16.1916 6.10461L14.937 7.31452L13.6226 6.04411C12.4278 4.95518 11.0537 4.47122 9.73931 4.47122Z" fill="#D53863"/>
<path fill-rule="evenodd" clip-rule="evenodd" d="M20.5525 12.033H19.0589H17.2068H16.9679V8.70575C16.9679 8.52426 16.7886 8.34277 16.6094 8.34277H13.1443C12.9651 8.34277 12.7858 8.52426 12.7858 8.70575V12.033H12.5469H9.55969H9.20123C9.022 12.033 8.84277 12.2145 8.84277 12.396V15.9048C8.84277 16.0862 9.022 16.2677 9.20123 16.2677H9.55969H12.5469H12.7858V19.4135C12.7858 19.595 12.9651 19.7765 13.1443 19.7765H16.6094C16.7886 19.7765 16.9679 19.595 16.9679 19.4135V16.2677H17.2068H19.0589H20.5525C20.7317 16.2677 20.9109 16.0862 20.9109 15.9048V12.396C20.9109 12.2145 20.7317 12.033 20.5525 12.033Z" fill="#D53863"/>
</g>
<defs>
<clipPath id="clip0_3_5300">
<rect width="120" height="28.8" fill="white"/>
</clipPath>
</defs>
</svg>
