<svg width="128" height="128" viewBox="0 0 128 128" fill="none" xmlns="http://www.w3.org/2000/svg">
<path d="M3.09475 120.278H86.0838C89.1987 120.276 92.1908 119.062 94.4273 116.894C96.6638 114.726 97.9693 111.773 98.0679 108.659H123.991C124.644 108.659 125.27 108.4 125.732 107.938C126.194 107.477 126.453 106.851 126.453 106.198V48.0914C126.453 47.4386 126.194 46.8125 125.732 46.3508C125.27 45.8892 124.644 45.6299 123.991 45.6299H41.1431C40.4903 45.6299 39.8642 45.8892 39.4025 46.3508C38.9409 46.8125 38.6816 47.4386 38.6816 48.0914V59.1472H28.2868C27.634 59.1472 27.0079 59.4066 26.5463 59.8682C26.0846 60.3298 25.8253 60.9559 25.8253 61.6088C25.8253 62.2616 26.0846 62.8877 26.5463 63.3493C27.0079 63.811 27.634 64.0703 28.2868 64.0703H38.6816V78.6567C38.6816 79.3095 38.9409 79.9356 39.4025 80.3972C39.8642 80.8589 40.4903 81.1182 41.1431 81.1182C41.7959 81.1182 42.422 80.8589 42.8837 80.3972C43.3453 79.9356 43.6046 79.3095 43.6046 78.6567V63.2967C46.7716 62.7708 49.6948 61.2675 51.9648 58.9975C54.2348 56.7275 55.7381 53.8043 56.264 50.6373H108.828C109.366 53.7993 110.873 56.716 113.141 58.9839C115.409 61.2518 118.326 62.7589 121.488 63.2967V91.0206C118.326 91.5584 115.409 93.0655 113.141 95.3334C110.873 97.6013 109.366 100.518 108.828 103.68H43.6046V95.2123H51.0314C51.6843 95.2123 52.3104 94.9529 52.772 94.4913C53.2337 94.0297 53.493 93.4036 53.493 92.7507C53.493 92.0979 53.2337 91.4718 52.772 91.0102C52.3104 90.5485 51.6843 90.2892 51.0314 90.2892H27.246C26.5931 90.2892 25.967 90.5485 25.5054 91.0102C25.0438 91.4718 24.7844 92.0979 24.7844 92.7507C24.7844 93.4036 25.0438 94.0297 25.5054 94.4913C25.967 94.9529 26.5931 95.2123 27.246 95.2123H38.6816V106.198C38.6816 106.851 38.9409 107.477 39.4025 107.938C39.8642 108.4 40.4903 108.659 41.1431 108.659H93.187C93.1003 110.465 92.3211 112.169 91.0115 113.416C89.7019 114.662 87.9623 115.357 86.1541 115.355H5.62661V35.9525H100.431C101.084 35.9525 101.71 35.6932 102.172 35.2315C102.633 34.7699 102.893 34.1438 102.893 33.491C102.893 32.8381 102.633 32.212 102.172 31.7504C101.71 31.2888 101.084 31.0294 100.431 31.0294H98.1805V14.6426C98.1806 14.3134 98.1147 13.9874 97.9866 13.6841C97.8585 13.3808 97.6709 13.1062 97.4348 12.8767C97.1987 12.6472 96.919 12.4674 96.6122 12.3479C96.3054 12.2284 95.9777 12.1717 95.6486 12.1811H81.3717V7.96129C81.3717 7.30845 81.1123 6.68235 80.6507 6.22072C80.1891 5.7591 79.563 5.49976 78.9101 5.49976C78.2573 5.49976 77.6312 5.7591 77.1696 6.22072C76.7079 6.68235 76.4486 7.30845 76.4486 7.96129V12.1811H53.0147V7.96129C53.0147 7.30845 52.7554 6.68235 52.2938 6.22072C51.8322 5.7591 51.206 5.49976 50.5532 5.49976C49.9004 5.49976 49.2743 5.7591 48.8126 6.22072C48.351 6.68235 48.0917 7.30845 48.0917 7.96129V12.1811H24.6578V7.96129C24.6578 7.30845 24.3985 6.68235 23.9369 6.22072C23.4752 5.7591 22.8491 5.49976 22.1963 5.49976C21.5434 5.49976 20.9173 5.7591 20.4557 6.22072C19.9941 6.68235 19.7347 7.30845 19.7347 7.96129V12.1811H3.08068C2.42784 12.1811 1.80174 12.4404 1.34011 12.902C0.878481 13.3637 0.619141 13.9898 0.619141 14.6426V117.816C0.619135 118.141 0.683268 118.462 0.807851 118.761C0.932433 119.061 1.11501 119.333 1.34507 119.562C1.57514 119.791 1.84816 119.972 2.14843 120.094C2.44871 120.217 2.77031 120.28 3.09475 120.278ZM43.6046 58.247V50.5529H51.2987C50.8421 52.4162 49.8834 54.1187 48.5269 55.4752C47.1704 56.8317 45.4679 57.7904 43.6046 58.247ZM113.836 50.5529H121.53V58.247C119.667 57.789 117.966 56.8298 116.609 55.4735C115.253 54.1172 114.294 52.4155 113.836 50.5529ZM121.53 96.0281V103.736H113.836C114.293 101.872 115.252 100.168 116.608 98.8092C117.964 97.4505 119.666 96.4887 121.53 96.0281ZM5.54222 17.1042H19.6925V21.4224C19.6925 22.0752 19.9519 22.7013 20.4135 23.163C20.8751 23.6246 21.5012 23.8839 22.1541 23.8839C22.8069 23.8839 23.433 23.6246 23.8947 23.163C24.3563 22.7013 24.6156 22.0752 24.6156 21.4224V17.1042H48.0917V21.4224C48.0917 22.0752 48.351 22.7013 48.8126 23.163C49.2743 23.6246 49.9004 23.8839 50.5532 23.8839C51.206 23.8839 51.8322 23.6246 52.2938 23.163C52.7554 22.7013 53.0147 22.0752 53.0147 21.4224V17.1042H76.4486V21.4224C76.4486 22.0752 76.7079 22.7013 77.1696 23.163C77.6312 23.6246 78.2573 23.8839 78.9101 23.8839C79.563 23.8839 80.1891 23.6246 80.6507 23.163C81.1123 22.7013 81.3717 22.0752 81.3717 21.4224V17.1042H93.187V31.0294H5.54222V17.1042Z" fill="#536666"/>
<path d="M87.4062 89.5718V89.0513C91.6259 88.8122 94.9877 85.6896 94.9877 81.8777V81.5823C94.9514 80.106 94.409 78.687 93.4513 77.5628C92.4936 76.4387 91.1788 75.6778 89.727 75.4074L87.4062 74.9291V69.795C88.8971 69.9779 90.0787 70.9063 90.0787 72.0175C90.0787 72.6703 90.338 73.2964 90.7997 73.758C91.2613 74.2197 91.8874 74.479 92.5402 74.479C93.1931 74.479 93.8192 74.2197 94.2808 73.758C94.7424 73.2964 95.0018 72.6703 95.0018 72.0175C95.0018 68.2056 91.64 65.097 87.4062 64.8438V64.5485C87.4062 63.8956 87.1468 63.2695 86.6852 62.8079C86.2236 62.3463 85.5975 62.0869 84.9446 62.0869C84.2918 62.0869 83.6657 62.3463 83.204 62.8079C82.7424 63.2695 82.4831 63.8956 82.4831 64.5485V64.8298H82.3143C77.8413 64.8298 74.1982 68.0509 74.1982 72.0175V72.2566C74.2625 73.7017 74.804 75.0848 75.7381 76.1894C76.6722 77.294 77.946 78.0578 79.3604 78.3612L82.4831 78.9942V84.1564H82.3143C80.5842 84.1564 79.1213 83.1155 79.1213 81.8777C79.1213 81.2248 78.862 80.5987 78.4004 80.1371C77.9387 79.6755 77.3126 79.4161 76.6598 79.4161C76.0069 79.4161 75.3808 79.6755 74.9192 80.1371C74.4576 80.5987 74.1982 81.2248 74.1982 81.8777C74.1982 85.8443 77.8413 89.0794 82.3143 89.0794H82.4831V89.5718C82.4831 90.2246 82.7424 90.8507 83.204 91.3123C83.6657 91.7739 84.2918 92.0333 84.9446 92.0333C85.5975 92.0333 86.2236 91.7739 86.6852 91.3123C87.1468 90.8507 87.4062 90.2246 87.4062 89.5718ZM87.4062 80.0069L88.644 80.2601C89.516 80.4711 90.0505 81.0056 90.0505 81.6667V81.9199C90.0505 83.017 88.8831 83.9735 87.3921 84.1564L87.4062 80.0069ZM82.4831 73.9726L80.3873 73.5366C80.0788 73.4655 79.7965 73.3091 79.5726 73.0853C79.3488 72.8614 79.1924 72.5791 79.1213 72.2707V72.0175C79.1213 70.7797 80.5279 69.7528 82.3143 69.7528H82.4831V73.9726Z" fill="#00AAA0"/>
<path d="M108.14 77.0533C108.14 72.4262 106.767 67.9032 104.196 64.0561C101.626 60.2091 97.9714 57.2109 93.6963 55.4409C89.4212 53.6708 84.7172 53.2084 80.1793 54.1121C75.6414 55.0158 71.4734 57.2451 68.2026 60.5179C64.9318 63.7906 62.705 67.96 61.8041 72.4984C60.9031 77.0369 61.3683 81.7406 63.1409 86.0146C64.9136 90.2886 67.9139 93.9409 71.7625 96.5096C75.6111 99.0782 80.135 100.448 84.762 100.445C90.9623 100.437 96.9063 97.9702 101.289 93.5846C105.672 89.199 108.136 83.2535 108.14 77.0533ZM66.2935 77.0533C66.2935 73.4005 67.3766 69.8298 69.406 66.7927C71.4353 63.7555 74.3197 61.3884 77.6944 59.9905C81.0691 58.5927 84.7825 58.227 88.3651 58.9396C91.9476 59.6522 95.2384 61.4111 97.8213 63.994C100.404 66.5769 102.163 69.8677 102.876 73.4502C103.588 77.0328 103.223 80.7462 101.825 84.1209C100.427 87.4956 98.0598 90.38 95.0226 92.4093C91.9855 94.4387 88.4148 95.5219 84.762 95.5219C79.865 95.5181 75.1696 93.5711 71.7069 90.1084C68.2442 86.6457 66.2972 81.9503 66.2935 77.0533ZM10.8174 74.5495C10.8357 75.1901 11.1031 75.7983 11.5628 76.2448C12.0224 76.6913 12.6381 76.941 13.2789 76.9408H32.9713C33.6241 76.9408 34.2502 76.6814 34.7118 76.2198C35.1735 75.7582 35.4328 75.1321 35.4328 74.4792C35.4328 73.8264 35.1735 73.2003 34.7118 72.7386C34.2502 72.277 33.6241 72.0177 32.9713 72.0177H13.2789C12.9497 72.0175 12.6238 72.0835 12.3204 72.2115C12.0171 72.3396 11.7426 72.5273 11.513 72.7633C11.2835 72.9994 11.1037 73.2791 10.9842 73.5859C10.8647 73.8927 10.808 74.2204 10.8174 74.5495ZM18.8069 59.1473H17.0908C16.438 59.1473 15.8119 59.4067 15.3502 59.8683C14.8886 60.3299 14.6293 60.956 14.6293 61.6089C14.6293 62.2617 14.8886 62.8878 15.3502 63.3495C15.8119 63.8111 16.438 64.0704 17.0908 64.0704H18.8069C19.4597 64.0704 20.0858 63.8111 20.5474 63.3495C21.0091 62.8878 21.2684 62.2617 21.2684 61.6089C21.2684 60.956 21.0091 60.3299 20.5474 59.8683C20.0858 59.4067 19.4597 59.1473 18.8069 59.1473Z" fill="#00AAA0"/>
</svg>
